# xmcd
#
# Track frame offsets: 
#        150
#        21813
#        42304
#        56478
#        67469
#        80580
#        106303
#        121379
#        138233
#        155301
#        166945
#        187198
#        198762
#
# Disc length: 2812 seconds
#
# Revision: 3
# Processed by: cddbd v1.5.2PL0 Copyright (c) Steve Scherf et al.
# Submitted via: ExactAudioCopy v1.3
#
DISCID=b30afa0d
DTITLE=Townes Van Zandt - Live at The Old Quarter, Houston, Texas
DYEAR=1977
DGENRE=Folk
TTITLE0=For The Sake Of The Song
TTITLE1=Chauffeur's Blues
TTITLE2=No Place To Fall
TTITLE3=Loretta
TTITLE4=Kathleen
TTITLE5=Why She's Acting This Way
TTITLE6=Cocaine Blues
TTITLE7=Why Do You Love
TTITLE8=Tower Song
TTITLE9=Waiting 'Round To Die
TTITLE10=Tecumseh Valley
TTITLE11=Lungs
TTITLE12=Only Him Or Me
EXTD=
EXTT0=
EXTT1=
EXTT2=
EXTT3=
EXTT4=
EXTT5=
EXTT6=
EXTT7=
EXTT8=
EXTT9=
EXTT10=
EXTT11=
EXTT12=
PLAYORDER=
